<?xml version="1.0" encoding="iso-8859-1"?>
<!-- Generator: Adobe Illustrator 19.0.0, SVG Export Plug-In . SVG Version: 6.00 Build 0)  -->
<svg version="1.1" id="Layer_1" xmlns="http://www.w3.org/2000/svg" xmlns:xlink="http://www.w3.org/1999/xlink" x="0px" y="0px"
	 viewBox="0 0 512.001 512.001" style="enable-background:new 0 0 512.001 512.001;" xml:space="preserve">
<path style="fill:#CFF09E;" d="M432.994,265.268L266.234,491.46c-5.082,6.892-15.385,6.892-20.466,0L79.008,265.268
	c-6.188-8.394-0.195-20.257,10.232-20.257h333.521C433.19,245.011,439.182,256.874,432.994,265.268z"/>
<path style="fill:#507C5C;" d="M447.828,245.061c-4.805-9.511-14.41-15.421-25.067-15.421H175.045V34.035
	c0-1.817,1.477-3.294,3.294-3.294h155.324c1.817,0,3.294,1.477,3.294,3.294v113.304c0,1.817-1.477,3.294-3.294,3.294h-95.082
	c-8.489,0-15.371,6.881-15.371,15.371c0,8.489,6.881,15.371,15.371,15.371h95.082c18.766,0,34.035-15.269,34.035-34.035V34.035
	C367.697,15.268,352.43,0,333.662,0H178.339c-18.766,0-34.035,15.268-34.035,34.035V229.64H89.24
	c-10.657,0-20.262,5.908-25.067,15.421c-4.805,9.513-3.861,20.75,2.462,29.329l166.761,226.192
	c5.271,7.15,13.721,11.419,22.604,11.419c8.883,0,17.334-4.268,22.604-11.419l166.762-226.194
	C451.689,265.81,452.633,254.573,447.828,245.061z M256.001,479.439l-161.5-219.057h323L256.001,479.439z"/>
<g>
</g>
<g>
</g>
<g>
</g>
<g>
</g>
<g>
</g>
<g>
</g>
<g>
</g>
<g>
</g>
<g>
</g>
<g>
</g>
<g>
</g>
<g>
</g>
<g>
</g>
<g>
</g>
<g>
</g>
</svg>
